<svg xmlns="http://www.w3.org/2000/svg" viewBox="0 0 500 500" width="500" height="500">
  <rect width="500" height="500" fill="#14110f"/>
  <rect x="200" y="20" width="100" height="135" fill="#14171c" rx="4"/>
  <rect x="200" y="345" width="100" height="135" fill="#14171c" rx="4"/>

  <!-- Diver Steel Case & Ridged Bezel -->
  <circle cx="250" cy="250" r="148" fill="#d1d5db" stroke="#4b5563" stroke-width="2"/>
  <circle cx="250" cy="250" r="140" fill="#111827" stroke="#9ca3af" stroke-width="2" stroke-dasharray="10,4"/>
  <circle cx="250" cy="250" r="118" fill="#0b0f14"/>

  <!-- Diver Dot Indices -->
  <circle cx="250" cy="150" r="6" fill="#fef08a" stroke="#ffffff" stroke-width="1.5"/>
  <circle cx="250" cy="350" r="6" fill="#fef08a" stroke="#ffffff" stroke-width="1.5"/>
  <circle cx="150" cy="250" r="6" fill="#fef08a" stroke="#ffffff" stroke-width="1.5"/>

  <text x="250" y="195" font-family="sans-serif" font-size="14" font-weight="bold" fill="#ffffff" text-anchor="middle" letter-spacing="2">CITIZEN</text>
  <text x="250" y="210" font-family="sans-serif" font-size="8" fill="#38bdf8" text-anchor="middle">Eco-Drive DIVER'S 200M</text>
  <text x="250" y="305" font-family="sans-serif" font-size="6" fill="#94a3b8" text-anchor="middle">BN0150-28E · 44MM</text>

  <!-- Big Orange Minute Hand -->
  <polygon points="247,250 246,160 250,145 254,160 253,250" fill="#ea580c"/>
  <polygon points="247,250 247,190 250,180 253,190 253,250" fill="#ffffff"/>
  <circle cx="250" cy="250" r="5" fill="#ea580c"/>
</svg>